<?xml version="1.0" standalone="no"?>
<!DOCTYPE svg PUBLIC "-//W3C//DTD SVG 20010904//EN"
 "http://www.w3.org/TR/2001/REC-SVG-20010904/DTD/svg10.dtd">
<svg version="1.0" xmlns="http://www.w3.org/2000/svg"
 width="1280.000000pt" height="896.000000pt" viewBox="0 0 1280.000000 896.000000"
 preserveAspectRatio="xMidYMid meet">
<g transform="translate(0.000000,896.000000) scale(0.100000,-0.100000)"
fill="#000000" stroke="none">
<path d="M3459 8857 c-279 -144 -475 -273 -592 -390 -74 -73 -332 -408 -430
-557 -153 -234 -247 -494 -247 -686 0 -78 30 -128 149 -244 180 -177 428 -274
772 -301 157 -12 359 -2 522 27 45 7 87 14 93 14 7 0 17 -21 24 -47 29 -120
118 -283 153 -283 26 0 21 18 -22 89 -41 65 -68 132 -96 234 -9 31 -20 57 -25
57 -5 0 -62 -9 -127 -20 -330 -54 -647 -40 -896 41 -149 49 -325 161 -411 262
-106 126 -110 141 -75 310 32 161 102 326 216 509 49 79 309 429 386 518 104
122 322 270 629 429 205 106 235 102 372 -54 41 -48 87 -111 101 -140 25 -50
25 -55 11 -88 -8 -19 -24 -40 -35 -46 -17 -10 -20 -20 -18 -69 3 -75 -16 -103
-95 -143 -77 -39 -144 -46 -228 -24 -69 18 -165 62 -207 95 -45 35 -59 27 -73
-40 -25 -120 -156 -360 -362 -666 -48 -73 -88 -139 -88 -147 0 -30 17 -26 56
14 52 55 118 86 205 100 161 25 238 -19 339 -194 40 -69 56 -79 69 -44 19 49
112 108 226 143 46 14 93 19 205 19 164 0 230 -16 331 -80 116 -73 110 -71
132 -41 24 34 57 50 130 66 99 22 98 60 -1 46 -26 -3 -75 -20 -108 -36 l-62
-30 -72 41 c-89 50 -140 66 -252 79 -188 22 -420 -31 -510 -117 -33 -31 -51
-26 -77 24 -32 64 -89 120 -147 149 -52 25 -60 27 -152 21 -53 -4 -109 -10
-124 -13 -43 -10 -36 13 36 123 122 188 256 442 256 487 0 6 6 20 13 30 12 17
17 15 82 -18 131 -67 257 -83 362 -46 106 37 167 106 166 189 0 36 5 52 26 74
21 23 26 38 26 81 0 62 -36 128 -132 241 -89 105 -112 119 -204 123 l-76 4
-144 -75z"/>
<path d="M9135 8836 c-39 -17 -155 -141 -214 -230 -40 -60 -46 -76 -46 -121 0
-42 5 -57 28 -85 19 -22 27 -40 23 -55 -18 -70 66 -176 163 -208 104 -33 238
-17 355 43 74 38 94 38 102 3 22 -88 140 -314 266 -511 64 -98 70 -130 22
-112 -14 6 -65 13 -113 17 -75 5 -93 3 -138 -17 -55 -23 -122 -87 -167 -158
-28 -44 -46 -52 -66 -27 -42 51 -204 110 -340 124 -188 19 -333 -14 -476 -109
-31 -20 -31 -20 -56 -1 -34 27 -144 63 -182 59 -55 -5 -37 -30 35 -48 76 -20
127 -47 135 -72 8 -27 31 -22 84 17 58 43 132 76 222 100 86 23 272 16 363
-13 111 -35 197 -88 221 -134 8 -16 21 -28 28 -28 8 0 31 30 51 68 56 102 101
151 164 180 53 24 59 25 142 15 100 -13 184 -51 238 -107 19 -20 39 -36 43
-36 21 0 4 52 -35 105 -23 33 -65 94 -92 135 -26 41 -57 87 -66 102 -100 148
-225 394 -247 488 -10 42 -22 70 -30 70 -7 0 -28 -11 -46 -25 -43 -33 -148
-79 -215 -95 -113 -27 -248 14 -299 90 -19 29 -22 42 -17 82 6 44 5 50 -23 73
-46 38 -48 66 -10 136 41 78 166 221 211 242 64 31 96 23 262 -63 256 -132
441 -251 556 -358 68 -63 326 -392 426 -543 129 -198 207 -372 242 -546 25
-123 26 -175 4 -211 -104 -166 -269 -286 -493 -361 -245 -82 -553 -96 -900
-41 -115 18 -140 15 -140 -15 0 -37 -66 -208 -100 -261 -45 -68 -49 -84 -21
-84 30 0 94 105 130 216 18 54 36 102 40 106 4 4 44 1 90 -7 165 -29 378 -39
538 -26 145 12 173 16 303 48 220 55 436 194 566 367 l47 61 -7 100 c-16 266
-134 524 -398 870 -38 49 -102 133 -141 185 -124 165 -227 254 -454 391 -65
40 -186 107 -270 150 -139 72 -157 79 -210 79 -32 -1 -72 -7 -88 -14z"/>
<path d="M6250 8154 c-25 -14 -38 -23 -30 -21 152 44 239 45 360 4 41 -14 77
-23 79 -21 2 2 -25 17 -60 34 -60 28 -71 30 -184 30 -109 -1 -124 -3 -165 -26z"/>
<path d="M6260 8041 c-30 -10 -83 -32 -118 -49 l-63 -30 43 -25 c24 -14 89
-47 146 -73 56 -26 102 -51 102 -57 0 -6 -12 -25 -26 -44 -25 -33 -144 -272
-144 -289 0 -5 19 18 42 49 23 32 53 60 66 64 23 5 55 -15 72 -47 10 -19 -6
-102 -53 -280 -32 -120 -38 -157 -47 -335 -6 -110 -14 -308 -16 -440 -3 -132
-9 -240 -13 -240 -24 0 -130 164 -232 360 -123 236 -183 459 -182 680 1 143
17 238 59 349 28 73 30 89 19 172 -5 38 -3 66 10 104 9 28 15 53 13 55 -11 11
-208 -121 -254 -170 -92 -99 -235 -149 -609 -215 -126 -23 -244 -48 -262 -57
-19 -9 -40 -28 -48 -43 -14 -26 -99 -366 -148 -585 -22 -98 -23 -114 -11 -144
21 -50 17 -69 -15 -86 -42 -21 -46 -33 -21 -60 21 -22 21 -24 5 -55 -9 -17
-22 -64 -30 -103 -7 -40 -29 -157 -48 -262 -19 -104 -40 -242 -46 -305 -7 -63
-21 -182 -32 -265 -29 -222 -35 -380 -15 -433 21 -58 105 -185 204 -307 80
-100 169 -182 314 -288 91 -67 108 -89 108 -139 0 -31 -129 -1083 -145 -1189
l-6 -35 96 -33 c52 -18 97 -37 100 -41 3 -4 -7 -122 -21 -261 l-25 -253 21
-196 c11 -107 29 -258 40 -335 11 -77 26 -216 35 -310 9 -93 20 -195 25 -225
15 -92 68 -394 103 -580 l32 -175 -1 -365 c0 -201 -4 -384 -7 -407 l-7 -43
444 0 444 0 6 23 c3 13 1 93 -4 178 -12 200 -13 1669 -1 1669 5 0 14 -30 19
-67 21 -133 134 -816 207 -1248 41 -242 75 -466 75 -497 l0 -58 406 0 407 0
-7 88 c-20 274 -25 412 -16 487 6 44 13 202 16 350 6 290 11 323 80 620 95
406 133 668 186 1294 13 158 26 264 32 266 6 2 44 9 84 15 118 19 114 10 97
240 -8 107 -26 368 -40 580 -14 212 -27 408 -29 437 -3 39 0 55 12 66 9 8 82
54 161 102 198 120 394 252 466 315 57 50 61 56 73 119 31 162 22 514 -22 863
-8 62 -20 174 -26 248 -13 149 -28 230 -56 303 l-19 48 24 18 c19 15 21 21 13
38 -6 11 -18 25 -26 33 -23 18 -20 49 9 95 13 22 25 43 25 47 0 3 -16 15 -35
27 -31 18 -35 25 -35 63 0 24 -9 113 -20 198 -11 85 -27 213 -35 284 -23 210
-59 249 -240 266 -219 21 -515 91 -641 151 -61 28 -99 56 -150 107 -99 98
-333 271 -368 272 -4 0 15 -26 44 -57 l52 -57 -6 -67 c-7 -65 -6 -68 24 -102
42 -49 54 -120 46 -282 -18 -392 -108 -803 -222 -1025 -42 -82 -102 -160 -123
-160 -17 0 -20 33 -25 335 -5 323 -15 409 -88 724 -39 174 -39 174 -20 200 31
42 47 38 97 -29 25 -34 45 -57 45 -50 0 25 -81 183 -131 255 -28 42 -49 78
-46 81 3 4 40 21 82 39 42 19 108 52 147 75 l71 42 -82 39 c-46 21 -99 43
-119 49 -60 16 -210 11 -272 -9z"/>
<path d="M6037 8013 c-4 -6 2 -18 13 -28 23 -21 27 -8 7 20 -8 11 -16 14 -20
8z"/>
<path d="M2720 7170 c0 -24 54 -115 93 -157 49 -53 94 -78 179 -98 81 -19 131
-19 225 1 117 24 183 51 183 76 0 23 1 23 -130 -17 -213 -67 -395 -8 -488 157
-16 29 -34 48 -44 48 -10 0 -18 -5 -18 -10z"/>
<path d="M10133 7088 c-5 -7 -21 -34 -36 -59 -49 -86 -135 -142 -248 -160 -75
-12 -169 0 -273 36 -59 20 -73 21 -85 10 -19 -18 14 -38 109 -65 208 -57 374
-27 482 88 47 50 88 119 88 147 0 18 -24 20 -37 3z"/>
</g>
</svg>
